<svg width="20" height="18" viewBox="0 0 20 18" fill="none" xmlns="http://www.w3.org/2000/svg">
<path d="M9.6875 2.32031L1.95312 15.0156C1.875 15.1328 1.875 15.2109 1.875 15.3281C1.875 15.6406 2.10938 15.875 2.42188 15.875H17.5391C17.8516 15.875 18.125 15.6406 18.125 15.3281C18.125 15.2109 18.0859 15.1328 18.0078 15.0156L10.2734 2.32031C10.2344 2.20312 10.1172 2.125 10 2.125C9.84375 2.125 9.76562 2.20312 9.6875 2.32031ZM8.08594 1.34375C8.47656 0.679688 9.21875 0.25 10 0.25C10.7422 0.25 11.4844 0.679688 11.875 1.34375L19.6094 14.0391C19.8438 14.4297 20 14.8594 20 15.3281C20 16.6562 18.9062 17.75 17.5391 17.75H2.42188C1.09375 17.75 0 16.6562 0 15.3281C0 14.8594 0.117188 14.4297 0.351562 14.0391L8.08594 1.34375ZM11.25 13.375C11.25 14.0781 10.6641 14.625 10 14.625C9.29688 14.625 8.75 14.0781 8.75 13.375C8.75 12.7109 9.29688 12.125 10 12.125C10.6641 12.125 11.25 12.7109 11.25 13.375ZM10.9375 6.1875V9.9375C10.9375 10.4844 10.5078 10.875 10 10.875C9.45312 10.875 9.0625 10.4844 9.0625 9.9375V6.1875C9.0625 5.67969 9.45312 5.25 10 5.25C10.5078 5.25 10.9375 5.67969 10.9375 6.1875Z" fill="#991B1B"/>
</svg>
