<svg fill="none" height="50" viewBox="0 0 34 50" width="34" xmlns="http://www.w3.org/2000/svg">
  <path
    d="M15 46.2051L14 34C14.5903 34.0606 16.2396 34.1212 16.8889 34.1212C17.4792 34.1212 19.1285 34.0606 19.7778 34L18.7778 46.2051C18.7778 47.296 17.8924 48.1445 16.8889 48.1445C15.8264 48.1445 15 47.296 15 46.2051Z"
    fill="#262626"/>
  <circle cx="17" cy="21" fill="#DC2626" r="11"/>
  <path clip-rule="evenodd"
        d="M17 33C23.6274 33 29 27.6274 29 21C29 14.3726 23.6274 9 17 9C10.3726 9 5 14.3726 5 21C5 27.6274 10.3726 33 17 33ZM14.5 15V13.75C14.5 13.3438 14.1562 13 13.75 13C13.3125 13 13 13.3438 13 13.75V15C11.875 15 11 15.9062 11 17H9.75C9.3125 17 9 17.3438 9 17.75C9 18.1875 9.3125 18.5 9.75 18.5H11V20.25H9.75C9.3125 20.25 9 20.5938 9 21C9 21.4375 9.3125 21.75 9.75 21.75H11V23.5H9.75C9.3125 23.5 9 23.8438 9 24.25C9 24.6875 9.3125 25 9.75 25H11C11 26.125 11.875 27 13 27V28.25C13 28.6875 13.3125 29 13.75 29C14.1562 29 14.5 28.6875 14.5 28.25V27H16.25V28.25C16.25 28.6875 16.5625 29 17 29C17.4062 29 17.75 28.6875 17.75 28.25V27H19.5V28.25C19.5 28.6875 19.8125 29 20.25 29C20.6562 29 21 28.6875 21 28.25V27C22.0938 27 23 26.125 23 25H24.25C24.6562 25 25 24.6875 25 24.25C25 23.8438 24.6562 23.5 24.25 23.5H23V21.75H24.25C24.6562 21.75 25 21.4375 25 21C25 20.5938 24.6562 20.25 24.25 20.25H23V18.5H24.25C24.6562 18.5 25 18.1875 25 17.75C25 17.3438 24.6562 17 24.25 17H23C23 15.9062 22.0938 15 21 15V13.75C21 13.3438 20.6562 13 20.25 13C19.8125 13 19.5 13.3438 19.5 13.75V15H17.75V13.75C17.75 13.3438 17.4062 13 17 13C16.5625 13 16.25 13.3438 16.25 13.75V15H14.5ZM13 18C13 17.4688 13.4375 17 14 17H20C20.5312 17 21 17.4688 21 18V24C21 24.5625 20.5312 25 20 25H14C13.4375 25 13 24.5625 13 24V18ZM20 24V18H14V24H20Z"
        fill="#262626"
        fill-rule="evenodd"/>
  <path clip-rule="evenodd"
        d="M13.25 16C12.5469 16 12 16.5859 12 17.25V24.75C12 25.4531 12.5469 26 13.25 26H20.75C21.4141 26 22 25.4531 22 24.75V17.25C22 16.5859 21.4141 16 20.75 16H13.25ZM20 18V24H14V18H20Z"
        fill="#262626"
        fill-rule="evenodd"/>
  <path d="M20 24V18H14V24H20Z" fill="white"/>
</svg>
