<svg width="10" height="14" viewBox="0 0 10 14" fill="none" xmlns="http://www.w3.org/2000/svg">
  <path
    d="M1.09375 12.4844C1.09375 12.7852 0.878906 13 0.578125 13C0.298828 13 0.0625 12.7852 0.0625 12.4844L0.0625 1.14062C0.0625 0.861328 0.298828 0.625 0.578125 0.625C0.878906 0.625 1.09375 0.861328 1.09375 1.14062L1.09375 12.4844ZM4.50977 12.8496L2.27539 10.6152C2.18945 10.5293 2.125 10.4004 2.125 10.25C2.125 10.1211 2.18945 9.99219 2.27539 9.88477L4.50977 7.67188C4.72461 7.45703 5.04688 7.45703 5.24023 7.67188C5.45508 7.86523 5.45508 8.1875 5.24023 8.38086L3.88672 9.73438L9.17188 9.73438C9.47266 9.73438 9.6875 9.9707 9.6875 10.25C9.6875 10.5508 9.47266 10.7656 9.17188 10.7656L3.88672 10.7871L5.24023 12.1406C5.45508 12.334 5.45508 12.6562 5.24023 12.8496C5.04688 13.0645 4.72461 13.0645 4.50977 12.8496ZM5.24023 5.97461C5.04688 6.18945 4.72461 6.18945 4.50977 5.97461L2.27539 3.74023C2.08203 3.54688 2.08203 3.22461 2.27539 3.00977L4.50977 0.796875C4.72461 0.582031 5.04688 0.582031 5.24023 0.796875C5.45508 0.990234 5.45508 1.3125 5.24023 1.50586L3.88672 2.85938L9.17188 2.85938C9.47266 2.85938 9.6875 3.0957 9.6875 3.375C9.6875 3.67578 9.47266 3.89063 9.17188 3.89063L3.88672 3.91211L5.24023 5.26563C5.45508 5.45898 5.45508 5.78125 5.24023 5.97461Z"
    fill="currentColor" />
</svg>