<svg width="12" height="17" viewBox="0 0 12 17" fill="none" xmlns="http://www.w3.org/2000/svg">
<path d="M2 2C1.71875 2 1.5 2.25 1.5 2.5V14.5C1.5 14.7812 1.71875 15 2 15H4.5V13C4.5 12.1875 5.15625 11.5 6 11.5C6.8125 11.5 7.5 12.1875 7.5 13V15H10C10.25 15 10.5 14.7812 10.5 14.5V2.5C10.5 2.25 10.25 2 10 2H2ZM0 2.5C0 1.40625 0.875 0.5 2 0.5H10C11.0938 0.5 12 1.40625 12 2.5V14.5C12 15.625 11.0938 16.5 10 16.5H2C0.875 16.5 0 15.625 0 14.5V2.5ZM2.75 3.75C2.75 3.5 2.96875 3.25 3.25 3.25H4.75C5 3.25 5.25 3.5 5.25 3.75V5.25C5.25 5.53125 5 5.75 4.75 5.75H3.25C2.96875 5.75 2.75 5.53125 2.75 5.25V3.75ZM7.25 3.25H8.75C9 3.25 9.25 3.5 9.25 3.75V5.25C9.25 5.53125 9 5.75 8.75 5.75H7.25C6.96875 5.75 6.75 5.53125 6.75 5.25V3.75C6.75 3.5 6.96875 3.25 7.25 3.25ZM2.75 7.75C2.75 7.5 2.96875 7.25 3.25 7.25H4.75C5 7.25 5.25 7.5 5.25 7.75V9.25C5.25 9.53125 5 9.75 4.75 9.75H3.25C2.96875 9.75 2.75 9.53125 2.75 9.25V7.75ZM7.25 7.25H8.75C9 7.25 9.25 7.5 9.25 7.75V9.25C9.25 9.53125 9 9.75 8.75 9.75H7.25C6.96875 9.75 6.75 9.53125 6.75 9.25V7.75C6.75 7.5 6.96875 7.25 7.25 7.25Z" fill="white"/>
</svg>
