<svg fill="none" height="29" viewBox="0 0 31 29" width="31" xmlns="http://www.w3.org/2000/svg">
  <path
    d="M15.5 28.5C10.4688 28.5 5.875 25.875 3.35938 21.5C0.84375 17.1797 0.84375 11.875 3.35938 7.5C5.875 3.17969 10.4688 0.5 15.5 0.5C20.4766 0.5 25.0703 3.17969 27.5859 7.5C30.1016 11.875 30.1016 17.1797 27.5859 21.5C25.0703 25.875 20.4766 28.5 15.5 28.5ZM21.6797 11.9297H21.625C22.1719 11.4375 22.1719 10.6172 21.625 10.0703C21.1328 9.57812 20.3125 9.57812 19.8203 10.0703L13.75 16.1953L11.1797 13.625C10.6328 13.0781 9.8125 13.0781 9.32031 13.625C8.77344 14.1172 8.77344 14.9375 9.32031 15.4297L12.8203 18.9297C13.3125 19.4766 14.1328 19.4766 14.6797 18.9297L21.6797 11.9297Z"
    fill="#047857"/>
</svg>
