<svg fill="none" height="17" viewBox="0 0 18 17" width="18" xmlns="http://www.w3.org/2000/svg">
  <path
    d="M12.75 3.75C12.75 4.03125 12.6875 4.34375 12.5938 4.65625C12.4062 5.21875 12.0938 5.875 11.7188 6.5C11.625 6.6875 11.5312 6.84375 11.4062 7C11.2812 7.21875 11.1562 7.4375 11 7.65625V7.6875C10.4062 8.53125 9.84375 9.28125 9.4375 9.75C9.21875 10.0625 8.75 10.0625 8.53125 9.75C8.125 9.28125 7.5625 8.53125 7 7.6875C6.40625 6.84375 5.84375 5.875 5.53125 5.03125C5.5 4.96875 5.46875 4.90625 5.46875 4.84375C5.3125 4.46875 5.25 4.09375 5.25 3.78125C5.25 3.625 5.25 3.46875 5.25 3.34375C5.46875 1.46875 7.0625 0 9 0C11.0625 0 12.75 1.6875 12.75 3.75ZM11 9.40625C11.4062 8.84375 11.875 8.15625 12.3125 7.46875C12.375 7.375 12.4375 7.28125 12.5 7.1875V14.1875L16.5 12.75V4.84375L13.0938 6.0625C13.1562 5.9375 13.2188 5.78125 13.2812 5.625C13.4688 5.1875 13.625 4.71875 13.6875 4.25L16.9688 3.0625C17.2188 2.96875 17.4688 3 17.6562 3.15625C17.875 3.28125 18 3.53125 18 3.75V13.25C18 13.5938 17.7812 13.875 17.5 13.9688L12 15.9688C11.8125 16.0312 11.6562 16.0312 11.4688 15.9688L6.25 14.0625L1 15.9688C0.75 16.0625 0.5 16.0312 0.3125 15.875C0.09375 15.75 0 15.5 0 15.25V5.75C0 5.4375 0.1875 5.15625 0.46875 5.0625L4.25 3.6875C4.25 3.71875 4.25 3.75 4.25 3.75C4.25 4.25 4.34375 4.71875 4.5 5.1875L1.5 6.28125V14.1875L5.5 12.75V7.1875C5.53125 7.28125 5.59375 7.375 5.65625 7.46875C6.09375 8.15625 6.5625 8.84375 7 9.40625V12.75L11 14.1875V9.40625ZM9 4.75C9.4375 4.75 9.84375 4.53125 10.0625 4.125C10.2812 3.75 10.2812 3.28125 10.0625 2.875C9.84375 2.5 9.4375 2.25 9 2.25C8.53125 2.25 8.125 2.5 7.90625 2.875C7.6875 3.28125 7.6875 3.75 7.90625 4.125C8.125 4.53125 8.53125 4.75 9 4.75Z"
    fill="currentColor"/>
</svg>
