<svg width="30" height="25" viewBox="0 0 30 25" fill="none" xmlns="http://www.w3.org/2000/svg">
<path d="M15 0.25C15.7656 0.25 16.4766 0.6875 16.8594 1.34375L28.6719 21.4688C29.0547 22.1797 29.0547 23 28.6719 23.6562C28.2891 24.3672 27.5781 24.75 26.8125 24.75H3.1875C2.36719 24.75 1.65625 24.3672 1.27344 23.6562C0.890625 23 0.890625 22.1797 1.27344 21.4688L13.0859 1.34375C13.4688 0.6875 14.1797 0.25 15 0.25ZM15 7.25C14.2344 7.25 13.6875 7.85156 13.6875 8.5625V14.6875C13.6875 15.4531 14.2344 16 15 16C15.7109 16 16.3125 15.4531 16.3125 14.6875V8.5625C16.3125 7.85156 15.7109 7.25 15 7.25ZM16.75 19.5C16.75 18.5703 15.9297 17.75 15 17.75C14.0156 17.75 13.25 18.5703 13.25 19.5C13.25 20.4844 14.0156 21.25 15 21.25C15.9297 21.25 16.75 20.4844 16.75 19.5Z" fill="#991B1B"/>
</svg>
