<svg fill="none" height="16" viewBox="0 0 16 16" width="16" xmlns="http://www.w3.org/2000/svg">
  <path
    d="M8 0C8.25 0 8.53125 0.0625 8.75 0.1875L15.3125 2.96875C15.7188 3.15625 16 3.5625 16 4C16 4.46875 15.7188 4.875 15.3125 5.0625L8.75 7.84375C8.53125 7.96875 8.25 8 8 8C7.71875 8 7.46875 7.96875 7.21875 7.84375L0.65625 5.0625C0.25 4.875 0 4.46875 0 4C0 3.5625 0.25 3.15625 0.65625 2.96875L7.21875 0.1875C7.46875 0.0625 7.71875 0 8 0ZM7.8125 1.5625L2.0625 4L7.8125 6.46875C7.875 6.5 7.9375 6.5 8 6.5C8.0625 6.5 8.125 6.5 8.15625 6.46875L13.9062 4L8.15625 1.5625C8.125 1.53125 8.0625 1.5 8 1.5C7.9375 1.5 7.875 1.53125 7.8125 1.5625ZM0.65625 6.96875L1.65625 6.5625L3.5625 7.375L2.0625 8L7.8125 10.4688C7.875 10.5 7.9375 10.5 8 10.5C8.0625 10.5 8.125 10.5 8.15625 10.4688L13.9062 8L12.4375 7.375L14.3125 6.5625L15.3125 6.96875C15.7188 7.15625 16 7.5625 16 8C16 8.46875 15.7188 8.875 15.3125 9.0625L8.75 11.8438C8.53125 11.9688 8.25 12 8 12C7.71875 12 7.46875 11.9688 7.21875 11.8438L0.65625 9.0625C0.25 8.875 0 8.46875 0 8C0 7.5625 0.25 7.15625 0.65625 6.96875ZM0.65625 10.9688L1.65625 10.5625L3.5625 11.375L2.0625 12L7.8125 14.4688C7.875 14.5 7.9375 14.5 8 14.5C8.0625 14.5 8.125 14.5 8.15625 14.4688L13.9062 12L12.4375 11.375L14.3125 10.5625L15.3125 10.9688C15.7188 11.1562 16 11.5625 16 12C16 12.4688 15.7188 12.875 15.3125 13.0625L8.75 15.8438C8.53125 15.9688 8.25 16 8 16C7.71875 16 7.46875 15.9688 7.21875 15.8438L0.65625 13.0625C0.25 12.875 0 12.4688 0 12C0 11.5625 0.25 11.1562 0.65625 10.9688Z"
    fill="currentColor"/>
</svg>
