<svg fill="none" height="29" viewBox="0 0 28 29" width="28" xmlns="http://www.w3.org/2000/svg">
  <path
    d="M9.625 1.8125V4H12.6875V1.8125C12.6875 1.10156 13.2344 0.5 14 0.5C14.7109 0.5 15.3125 1.10156 15.3125 1.8125V4H18.375V1.8125C18.375 1.10156 18.9219 0.5 19.6875 0.5C20.3984 0.5 21 1.10156 21 1.8125V4C22.9141 4 24.5 5.58594 24.5 7.5H26.6875C27.3984 7.5 28 8.10156 28 8.8125C28 9.57812 27.3984 10.125 26.6875 10.125H24.5V13.1875H26.6875C27.3984 13.1875 28 13.7891 28 14.5C28 15.2656 27.3984 15.8125 26.6875 15.8125H24.5V18.875H26.6875C27.3984 18.875 28 19.4766 28 20.1875C28 20.9531 27.3984 21.5 26.6875 21.5H24.5C24.5 23.4688 22.9141 25 21 25V27.1875C21 27.9531 20.3984 28.5 19.6875 28.5C18.9219 28.5 18.375 27.9531 18.375 27.1875V25H15.3125V27.1875C15.3125 27.9531 14.7109 28.5 14 28.5C13.2344 28.5 12.6875 27.9531 12.6875 27.1875V25H9.625V27.1875C9.625 27.9531 9.02344 28.5 8.3125 28.5C7.54688 28.5 7 27.9531 7 27.1875V25C5.03125 25 3.5 23.4688 3.5 21.5H1.3125C0.546875 21.5 0 20.9531 0 20.1875C0 19.4766 0.546875 18.875 1.3125 18.875H3.5V15.8125H1.3125C0.546875 15.8125 0 15.2656 0 14.5C0 13.7891 0.546875 13.1875 1.3125 13.1875H3.5V10.125H1.3125C0.546875 10.125 0 9.57812 0 8.8125C0 8.10156 0.546875 7.5 1.3125 7.5H3.5C3.5 5.58594 5.03125 4 7 4V1.8125C7 1.10156 7.54688 0.5 8.3125 0.5C9.02344 0.5 9.625 1.10156 9.625 1.8125ZM8.75 7.5C7.76562 7.5 7 8.32031 7 9.25V19.75C7 20.7344 7.76562 21.5 8.75 21.5H19.25C20.1797 21.5 21 20.7344 21 19.75V9.25C21 8.32031 20.1797 7.5 19.25 7.5H8.75ZM19.25 9.25V19.75H8.75V9.25H19.25Z"
    fill="currentColor"/>
</svg>
