<?xml version="1.0" encoding="utf-8"?>
<!-- Generator: Adobe Illustrator 24.3.0, SVG Export Plug-In . SVG Version: 6.00 Build 0)  -->
<svg version="1.1" id="Orange" xmlns="http://www.w3.org/2000/svg" xmlns:xlink="http://www.w3.org/1999/xlink" x="0px" y="0px"
	 viewBox="0 0 400 159" style="enable-background:new 0 0 400 159;" xml:space="preserve">
<style type="text/css">
	.st0{fill:#EE7321;}
	.st1{font-family:'Montserrat-Regular';}
	.st2{font-size:89.9715px;}
	.st3{fill:#1D1D1B;}
</style>
<text transform="matrix(1 0 0 1 253.5977 145.6523)" class="st0 st1 st2">iot</text>
<path class="st3" d="M227.5,58.9l8-16.9c-11.9-7.6-25.8-11.7-39.9-11.7C170.8,30.2,154,42.4,154,62c0,40.5,61.6,26.4,61.6,51.8
	c0,8.8-8,13.8-21.3,13.8c-12.2,0-26.9-5.7-38.6-16.6l-8.3,16.6c12.8,11.5,29.4,18,46.6,18.1c25.1,0,43-12.5,43-32.9
	c0.2-41-61.4-27.7-61.4-52.6c0-7.6,7.3-11.9,18.6-11.9C206,48.9,217.5,52.5,227.5,58.9"/>
<path class="st3" d="M145.9,88.2c0.1-22.5-13.2-42.9-33.8-51.8l-7.6,16.2c13.3,6.9,21.6,20.7,21.6,35.6c0,22.3-18,40.5-40.4,40.5
	c-0.1,0-0.1,0-0.2,0c-22.5,0.1-40.9-18-41-40.5c0-15,8.4-28.8,21.8-35.6l-7.6-16.3c-20.6,9-33.9,29.4-33.8,51.8
	c0,32.6,26.4,57.8,60.4,57.8S145.9,120.6,145.9,88.2"/>
<rect x="76.6" y="22.7" class="st3" width="17.5" height="47.9"/>
<path class="st3" d="M271.1,48.3l-13.9,14.3v7.9h33.4V61h-18.7l8.6-8.9c2.6-2.6,4.9-5.4,6.9-8.6c1.2-2.1,1.9-4.6,1.9-7
	c0.2-4.1-1.5-8-4.6-10.6c-3-2.6-6.9-4-10.8-3.9c-3.6-0.1-7.1,0.8-10.1,2.7c-2.9,2.1-5.4,4.7-7.3,7.8l8.6,5c2.7-4.3,5.5-6.4,8.6-6.4
	c3-0.2,5.5,2.1,5.7,5.1c0,0.1,0,0.3,0,0.4c-0.1,1.8-0.7,3.5-1.8,4.9c-1.8,2.4-3.8,4.7-6,6.8"/>
</svg>
