<svg fill="none" height="16" viewBox="0 0 18 16" width="18" xmlns="http://www.w3.org/2000/svg">
  <path
    d="M9 1.5C6.65625 1.5 4.53125 2.75 3.34375 4.75C2.1875 6.78125 2.1875 9.25 3.34375 11.25C4.53125 13.2812 6.65625 14.5 9 14.5C11.3125 14.5 13.4375 13.2812 14.625 11.25C15.7812 9.25 15.7812 6.78125 14.625 4.75C13.4375 2.75 11.3125 1.5 9 1.5ZM9 16C6.125 16 3.5 14.5 2.0625 12C0.625 9.53125 0.625 6.5 2.0625 4C3.5 1.53125 6.125 0 9 0C11.8438 0 14.4688 1.53125 15.9062 4C17.3438 6.5 17.3438 9.53125 15.9062 12C14.4688 14.5 11.8438 16 9 16ZM8.25 10.75V8.75H6.25C5.8125 8.75 5.5 8.4375 5.5 8C5.5 7.59375 5.8125 7.25 6.25 7.25H8.25V5.25C8.25 4.84375 8.5625 4.5 9 4.5C9.40625 4.5 9.75 4.84375 9.75 5.25V7.25H11.75C12.1562 7.25 12.5 7.59375 12.5 8C12.5 8.4375 12.1562 8.75 11.75 8.75H9.75V10.75C9.75 11.1875 9.40625 11.5 9 11.5C8.5625 11.5 8.25 11.1875 8.25 10.75Z"
    fill="currentColor"/>
</svg>
