<svg fill="none" height="29" viewBox="0 0 29 29" width="29" xmlns="http://www.w3.org/2000/svg">
  <path
    d="M11 2.25C11 1.32031 11.7656 0.5 12.75 0.5C21.4453 0.5 28.5 7.55469 28.5 16.25C28.5 17.2344 27.6797 18 26.75 18C25.7656 18 25 17.2344 25 16.25C25 9.52344 19.4766 4 12.75 4C11.7656 4 11 3.23438 11 2.25ZM3.78125 12.5859L9.46875 18.2734L11.0547 16.7422C11 16.5781 11 16.4141 11 16.25C11 15.3203 11.7656 14.5 12.75 14.5C13.6797 14.5 14.5 15.3203 14.5 16.25C14.5 17.2344 13.6797 18 12.75 18C12.5859 18 12.4219 18 12.2578 17.9453L10.7266 19.5312L16.4141 25.2188C17.1797 25.9844 17.0703 27.3516 16.0312 27.7344C14.7188 28.2266 13.2969 28.5 11.875 28.5C5.58594 28.5 0.5 23.4141 0.5 17.125C0.5 15.7031 0.773438 14.2812 1.26562 12.9688C1.64844 11.9297 3.01562 11.8203 3.78125 12.5859ZM12.75 5.75C18.5469 5.75 23.25 10.4531 23.25 16.25C23.25 17.2344 22.4297 18 21.5 18C20.5156 18 19.75 17.2344 19.75 16.25C19.75 12.4219 16.5781 9.25 12.75 9.25C11.7656 9.25 11 8.48438 11 7.5C11 6.57031 11.7656 5.75 12.75 5.75Z"
    fill="currentColor"/>
</svg>
