<svg fill="none" height="17" viewBox="0 0 17 17" width="17" xmlns="http://www.w3.org/2000/svg">
  <path
    d="M12.3184 6.5C12.3184 4.71875 11.3497 3.09375 9.81842 2.1875C8.25592 1.28125 6.34967 1.28125 4.81842 2.1875C3.25592 3.09375 2.31842 4.71875 2.31842 6.5C2.31842 8.3125 3.25592 9.9375 4.81842 10.8438C6.34967 11.75 8.25592 11.75 9.81842 10.8438C11.3497 9.9375 12.3184 8.3125 12.3184 6.5ZM11.3497 11.625C10.2247 12.5 8.81842 13 7.31842 13C3.72467 13 0.81842 10.0938 0.81842 6.5C0.81842 2.9375 3.72467 0 7.31842 0C10.8809 0 13.8184 2.9375 13.8184 6.5C13.8184 8.03125 13.2872 9.4375 12.4122 10.5625L16.5997 14.7188C16.8809 15.0312 16.8809 15.5 16.5997 15.7812C16.2872 16.0938 15.8184 16.0938 15.5372 15.7812L11.3497 11.625Z"
    fill="#525252"/>
</svg>
