<svg width="17" height="16" viewBox="0 0 17 16" fill="none" xmlns="http://www.w3.org/2000/svg">
<path d="M0.504578 13C0.504578 12.5938 0.817078 12.25 1.25458 12.25H3.09833C3.41083 11.25 4.37958 10.5 5.50458 10.5C6.59833 10.5 7.56708 11.25 7.87958 12.25H15.7546C16.1608 12.25 16.5046 12.5938 16.5046 13C16.5046 13.4375 16.1608 13.75 15.7546 13.75H7.87958C7.56708 14.7812 6.59833 15.5 5.50458 15.5C4.37958 15.5 3.41083 14.7812 3.09833 13.75H1.25458C0.817078 13.75 0.504578 13.4375 0.504578 13ZM4.50458 13C4.50458 13.5625 4.94208 14 5.50458 14C6.03583 14 6.50458 13.5625 6.50458 13C6.50458 12.4688 6.03583 12 5.50458 12C4.94208 12 4.50458 12.4688 4.50458 13ZM10.5046 8C10.5046 8.5625 10.9421 9 11.5046 9C12.0358 9 12.5046 8.5625 12.5046 8C12.5046 7.46875 12.0358 7 11.5046 7C10.9421 7 10.5046 7.46875 10.5046 8ZM11.5046 5.5C12.5983 5.5 13.5671 6.25 13.8796 7.25H15.7546C16.1608 7.25 16.5046 7.59375 16.5046 8C16.5046 8.4375 16.1608 8.75 15.7546 8.75H13.8796C13.5671 9.78125 12.5983 10.5 11.5046 10.5C10.3796 10.5 9.41083 9.78125 9.09833 8.75H1.25458C0.817078 8.75 0.504578 8.4375 0.504578 8C0.504578 7.59375 0.817078 7.25 1.25458 7.25H9.09833C9.41083 6.25 10.3796 5.5 11.5046 5.5ZM6.50458 4C7.03583 4 7.50458 3.5625 7.50458 3C7.50458 2.46875 7.03583 2 6.50458 2C5.94208 2 5.50458 2.46875 5.50458 3C5.50458 3.5625 5.94208 4 6.50458 4ZM8.87958 2.25H15.7546C16.1608 2.25 16.5046 2.59375 16.5046 3C16.5046 3.4375 16.1608 3.75 15.7546 3.75H8.87958C8.56708 4.78125 7.59833 5.5 6.50458 5.5C5.37958 5.5 4.41083 4.78125 4.09833 3.75H1.25458C0.817078 3.75 0.504578 3.4375 0.504578 3C0.504578 2.59375 0.817078 2.25 1.25458 2.25H4.09833C4.41083 1.25 5.37958 0.5 6.50458 0.5C7.59833 0.5 8.56708 1.25 8.87958 2.25Z" fill="black"/>
</svg>
