<svg fill="none" height="53" viewBox="0 0 34 53" width="34" xmlns="http://www.w3.org/2000/svg">
  <g filter="url(#filter0_dd_273_3638)">
    <g filter="url(#filter1_dd_273_3638)">
      <path
        d="M15 46.2051L14 34C14.5903 34.0606 16.2396 34.1212 16.8889 34.1212C17.4792 34.1212 19.1285 34.0606 19.7778 34L18.7778 46.2051C18.7778 47.296 17.8924 48.1445 16.8889 48.1445C15.8264 48.1445 15 47.296 15 46.2051Z"
        fill="#262626"/>
      <circle cx="17" cy="21" fill="#F5F5F5" r="11"/>
      <path clip-rule="evenodd"
            d="M17 33C23.6274 33 29 27.6274 29 21C29 14.3726 23.6274 9 17 9C10.3726 9 5 14.3726 5 21C5 27.6274 10.3726 33 17 33ZM17 12C16.4375 12 16 12.498 16 13.0625C16 13.6602 16.4375 14.125 17 14.125C20.8438 14.125 24 17.4785 24 21.5625C24 22.1602 24.4375 22.625 25 22.625C25.5312 22.625 26 22.1602 26 21.5625C26 16.2832 21.9688 12 17 12ZM15.125 22.791L11.875 19.3379C11.4375 18.873 10.6562 18.9395 10.4375 19.5703C10.1562 20.3672 10 21.2305 10 22.0938C10 25.9121 12.9062 29 16.5 29C17.3125 29 18.125 28.834 18.875 28.5352C19.4688 28.3027 19.5312 27.4727 19.0938 27.0078L15.8438 23.5547L16.7188 22.5918C16.8125 22.625 16.9062 22.625 17 22.625C17.5312 22.625 18 22.1602 18 21.5625C18 20.998 17.5312 20.5 17 20.5C16.4375 20.5 16 20.998 16 21.5625C16 21.6621 16 21.7617 16.0312 21.8613L15.125 22.791ZM23 21.5625C23 18.043 20.3125 15.1875 17 15.1875C16.4375 15.1875 16 15.6855 16 16.25C16 16.8477 16.4375 17.3125 17 17.3125C19.1875 17.3125 21 19.2383 21 21.5625C21 22.1602 21.4375 22.625 22 22.625C22.5312 22.625 23 22.1602 23 21.5625Z"
            fill="#262626"
            fill-rule="evenodd"/>
      <path
        d="M17 12C16.4375 12 16 12.5156 16 13.1C16 13.7188 16.4375 14.2 17 14.2C20.8438 14.2 24 17.5 24 21.5C24 22.1187 24.4375 22.6 25 22.6C25.5312 22.6 26 22.1187 26 21.5C26 16 22 12 17 12Z"
        fill="#059669"/>
    </g>
  </g>
  <defs>
    <filter color-interpolation-filters="sRGB" filterUnits="userSpaceOnUse" height="46" id="filter0_dd_273_3638"
            width="30" x="2"
            y="7">
      <feFlood flood-opacity="0" result="BackgroundImageFix"/>
      <feColorMatrix in="SourceAlpha" result="hardAlpha" type="matrix"
                     values="0 0 0 0 0 0 0 0 0 0 0 0 0 0 0 0 0 0 127 0"/>
      <feOffset dy="1"/>
      <feGaussianBlur stdDeviation="1"/>
      <feColorMatrix type="matrix" values="0 0 0 0 0 0 0 0 0 0 0 0 0 0 0 0 0 0 0.06 0"/>
      <feBlend in2="BackgroundImageFix" mode="normal" result="effect1_dropShadow_273_3638"/>
      <feColorMatrix in="SourceAlpha" result="hardAlpha" type="matrix"
                     values="0 0 0 0 0 0 0 0 0 0 0 0 0 0 0 0 0 0 127 0"/>
      <feOffset dy="1"/>
      <feGaussianBlur stdDeviation="1.5"/>
      <feColorMatrix type="matrix" values="0 0 0 0 0 0 0 0 0 0 0 0 0 0 0 0 0 0 0.1 0"/>
      <feBlend in2="effect1_dropShadow_273_3638" mode="normal" result="effect2_dropShadow_273_3638"/>
      <feBlend in="SourceGraphic" in2="effect2_dropShadow_273_3638" mode="normal" result="shape"/>
    </filter>
    <filter color-interpolation-filters="sRGB" filterUnits="userSpaceOnUse" height="49.1445" id="filter1_dd_273_3638"
            width="34" x="0"
            y="0">
      <feFlood flood-opacity="0" result="BackgroundImageFix"/>
      <feColorMatrix in="SourceAlpha" result="hardAlpha" type="matrix"
                     values="0 0 0 0 0 0 0 0 0 0 0 0 0 0 0 0 0 0 127 0"/>
      <feMorphology in="SourceAlpha" operator="erode" radius="1" result="effect1_dropShadow_273_3638"/>
      <feOffset dy="-2"/>
      <feGaussianBlur stdDeviation="2"/>
      <feColorMatrix type="matrix" values="0 0 0 0 0 0 0 0 0 0 0 0 0 0 0 0 0 0 0.06 0"/>
      <feBlend in2="BackgroundImageFix" mode="normal" result="effect1_dropShadow_273_3638"/>
      <feColorMatrix in="SourceAlpha" result="hardAlpha" type="matrix"
                     values="0 0 0 0 0 0 0 0 0 0 0 0 0 0 0 0 0 0 127 0"/>
      <feMorphology in="SourceAlpha" operator="erode" radius="1" result="effect2_dropShadow_273_3638"/>
      <feOffset dy="-4"/>
      <feGaussianBlur stdDeviation="3"/>
      <feColorMatrix type="matrix" values="0 0 0 0 0 0 0 0 0 0 0 0 0 0 0 0 0 0 0.1 0"/>
      <feBlend in2="effect1_dropShadow_273_3638" mode="normal" result="effect2_dropShadow_273_3638"/>
      <feBlend in="SourceGraphic" in2="effect2_dropShadow_273_3638" mode="normal" result="shape"/>
    </filter>
  </defs>
</svg>
