<svg fill="none" height="20" viewBox="0 0 22 20" width="22" xmlns="http://www.w3.org/2000/svg">
  <path
    d="M11 1.875C8.07031 1.875 5.41406 3.4375 3.92969 5.9375C2.48438 8.47656 2.48438 11.5625 3.92969 14.0625C5.41406 16.6016 8.07031 18.125 11 18.125C13.8906 18.125 16.5469 16.6016 18.0312 14.0625C19.4766 11.5625 19.4766 8.47656 18.0312 5.9375C16.5469 3.4375 13.8906 1.875 11 1.875ZM11 20C7.40625 20 4.125 18.125 2.32812 15C0.53125 11.9141 0.53125 8.125 2.32812 5C4.125 1.91406 7.40625 0 11 0C14.5547 0 17.8359 1.91406 19.6328 5C21.4297 8.125 21.4297 11.9141 19.6328 15C17.8359 18.125 14.5547 20 11 20ZM15.4141 8.16406L10.4141 13.1641C10.0234 13.5547 9.4375 13.5547 9.08594 13.1641L6.58594 10.6641C6.19531 10.3125 6.19531 9.72656 6.58594 9.375C6.9375 8.98438 7.52344 8.98438 7.91406 9.375L9.75 11.2109L14.0859 6.875C14.4375 6.48438 15.0234 6.48438 15.4141 6.875C15.7656 7.22656 15.7656 7.8125 15.4141 8.16406Z"
    fill="#047857"/>
</svg>
