<?xml version="1.0" standalone="no"?>
<!DOCTYPE svg PUBLIC "-//W3C//DTD SVG 20010904//EN"
  "http://www.w3.org/TR/2001/REC-SVG-20010904/DTD/svg10.dtd">
<svg height="500.000000pt" preserveAspectRatio="xMidYMid meet"
     version="1.0" viewBox="0 0 500.000000 500.000000" width="500.000000pt"
     xmlns="http://www.w3.org/2000/svg">
  <metadata>
    Created by potrace 1.11, written by Peter Selinger 2001-2013
  </metadata>
  <g fill="#000000"
     stroke="none" transform="translate(0.000000,500.000000) scale(0.100000,-0.100000)">
    <path d="M801 3410 c-4 -3 -7 -153 -7 -335 l1 -330 123 -3 122 -3 -2 338 -3
337 -113 0 c-63 1 -117 -1 -121 -4z"/>
    <path d="M3422 3399 c-40 -20 -122 -101 -122 -121 0 -5 8 -12 18 -15 9 -4 34
-18 55 -31 l38 -25 40 41 c22 23 47 42 57 43 67 4 101 -22 102 -78 0 -39 -37
-86 -188 -243 l-112 -115 0 -56 0 -56 233 1 232 1 0 65 0 65 -110 2 c-60 1
-118 2 -128 2 -14 1 8 30 77 102 110 117 139 167 139 244 0 117 -88 195 -219
195 -50 0 -81 -6 -112 -21z"/>
    <path d="M2270 3289 c-258 -57 -403 -221 -394 -445 9 -211 121 -325 414 -419
320 -102 370 -126 412 -192 31 -52 35 -120 9 -172 -66 -128 -315 -154 -546
-58 -64 27 -168 89 -224 135 -50 41 -38 52 -113 -101 l-47 -97 50 -40 c176
-139 399 -214 622 -209 254 5 450 106 535 275 29 57 45 158 38 232 -11 103
-41 169 -110 238 -76 76 -173 124 -381 189 -186 58 -262 92 -306 137 -76 76
-70 195 13 246 128 79 386 48 601 -72 25 -14 49 -26 52 -26 3 0 13 16 21 35 7
19 32 70 53 115 l39 80 -26 19 c-68 48 -209 104 -309 123 -5 1 -24 5 -43 10
-74 18 -271 17 -360 -3z"/>
    <path d="M458 3177 c-137 -85 -236 -194 -302 -331 -59 -122 -71 -182 -71 -356
1 -148 2 -159 32 -246 119 -343 426 -555 802 -555 236 0 436 79 595 234 124
121 189 239 233 422 3 11 6 72 8 135 5 235 -75 431 -243 593 -57 54 -194 147
-217 147 -10 0 -105 -195 -105 -216 0 -6 22 -25 49 -43 57 -36 131 -115 167
-177 164 -280 55 -647 -238 -795 -368 -186 -818 93 -818 507 0 185 102 374
254 470 34 21 44 34 40 47 -16 52 -97 207 -107 206 -7 0 -42 -19 -79 -42z"/>
    <path d="M3391 2636 c-46 -25 -54 -84 -16 -121 51 -52 135 -15 135 60 0 29 -6
39 -32 55 -38 23 -54 24 -87 6z"/>
    <path d="M4530 2434 l0 -74 -55 0 c-30 0 -56 -4 -56 -10 -1 -5 -1 -17 -1 -25
0 -67 -2 -65 57 -65 l55 0 0 -206 c0 -232 7 -270 57 -319 64 -62 207 -73 277
-22 16 12 17 18 7 50 -15 44 -27 53 -47 36 -20 -17 -95 -17 -127 0 -14 8 -31
27 -37 44 -5 17 -10 114 -10 223 l0 194 95 0 95 0 0 50 0 50 -95 0 -95 0 0 75
0 75 -60 -1 -60 -1 0 -74z"/>
    <path d="M3903 2355 c-155 -48 -253 -188 -240 -345 7 -87 11 -102 43 -160 56
-102 157 -162 284 -166 136 -5 247 50 309 151 40 66 54 129 49 217 -4 78 -35
161 -80 208 -84 92 -244 133 -365 95z m169 -101 c43 -9 106 -60 130 -106 31
-61 32 -185 0 -245 -80 -154 -310 -155 -387 -2 -76 148 -5 325 142 358 37 8
58 7 115 -5z"/>
    <path d="M3370 2025 l0 -335 60 0 60 0 0 335 0 335 -60 0 -60 0 0 -335z"/>
  </g>
</svg>
